<svg xmlns="http://www.w3.org/2000/svg" xmlns:xlink="http://www.w3.org/1999/xlink" width="2000" zoomAndPan="magnify" viewBox="0 0 1500 1499.999933" height="2000" preserveAspectRatio="xMidYMid meet" version="1.0"><defs><clipPath id="676403a137"><path d="M 7.5 35 L 1474 35 L 1474 1500 L 7.5 1500 Z M 7.5 35 " clip-rule="nonzero"/></clipPath></defs><g clip-path="url(#676403a137)"><path fill="#f74c29" d="M 7.5 1499.53125 C 168.886719 1298.015625 275.179688 1159.765625 448.988281 981.625 C 298.582031 830.664062 298.40625 826.59375 162.09375 616.410156 C 371.75 753.164062 375.9375 753.425781 526.167969 903.890625 C 755.125 673.933594 950.253906 467.351562 1208.796875 260.769531 L 1338.289062 157.289062 L 1222.007812 150.933594 C 990.9375 137.546875 914.464844 113.121094 692.445312 67.105469 C 802.664062 56.589844 1374.433594 0.46875 1441.242188 67.191406 C 1492.5 118.363281 1469.828125 572.328125 1461.65625 659.316406 C 1461.597656 659.960938 1444.230469 845.191406 1444.140625 845.867188 C 1443.996094 845.222656 1405.976562 663.097656 1405.832031 662.453125 C 1364.386719 464.042969 1360.578125 351.570312 1351.148438 170.117188 L 1247.488281 299.519531 C 1040.644531 557.828125 833.796875 752.8125 603.609375 981.535156 C 756.0625 1134.519531 755.625 1137.652344 892.523438 1348.804688 C 681.636719 1211.257812 678.589844 1211.726562 525.757812 1058.65625 C 347.527344 1232.230469 209.160156 1338.375 7.5 1499.53125 Z M 7.5 1499.53125 " fill-opacity="1" fill-rule="evenodd"/></g></svg>